<svg width="223" height="247" viewBox="0 0 223 247" fill="none" xmlns="http://www.w3.org/2000/svg">
<g clip-path="url(#clip0_901_288)">
<path d="M89.2156 163.877C89.2156 158.448 89.2156 153.019 89.2156 147.59C89.2156 147.032 89.2156 146.753 89.9334 146.753C95.9369 146.753 101.962 146.41 107.944 146.882C109.321 146.894 110.676 147.225 111.899 147.847C113.123 148.469 114.182 149.366 114.991 150.465C115.683 151.541 116.15 152.743 116.367 153.999C116.584 155.255 116.545 156.541 116.253 157.782C116.084 158.652 115.742 159.479 115.245 160.216C114.748 160.953 114.107 161.585 113.36 162.074C112.816 162.482 112.686 162.653 113.36 163.104C114.449 163.701 115.385 164.535 116.098 165.542C116.81 166.55 117.28 167.705 117.471 168.919C118.167 174.606 115.1 180.163 108.379 180.721C106.465 180.893 104.551 180.871 102.636 180.914C98.4818 180.914 94.349 180.914 90.2162 180.914C89.5201 180.914 89.1938 180.914 89.1938 179.949C89.2373 174.649 89.2156 169.263 89.2156 163.877ZM101.853 174.799H104.377C105.225 174.799 106.073 174.799 106.922 174.799C107.262 174.797 107.597 174.716 107.9 174.563C108.813 174.026 109.521 173.208 109.914 172.234C110.307 171.26 110.364 170.185 110.076 169.177C110.019 168.715 109.871 168.269 109.638 167.864C109.406 167.46 109.095 167.105 108.723 166.819C108.351 166.534 107.925 166.324 107.47 166.202C107.015 166.08 106.541 166.048 106.073 166.108H96.7634C96.2632 166.108 96.0674 166.108 96.0891 166.73C96.0891 169.263 96.0891 171.773 96.0891 174.305C96.0891 174.82 96.2414 174.885 96.6982 174.885L101.853 174.799ZM101.223 160.272H105.573C106.162 160.331 106.758 160.251 107.31 160.038C107.861 159.825 108.353 159.485 108.745 159.046C109.137 158.607 109.416 158.083 109.561 157.516C109.705 156.949 109.71 156.356 109.575 155.787C109.358 154.135 108.575 153.212 107.117 153.126C103.702 152.89 100.309 152.654 96.8722 152.59C96.4154 152.59 96.2414 152.59 96.2631 153.169C96.2631 155.358 96.2631 157.546 96.2631 159.735C96.2631 160.25 96.4154 160.314 96.8722 160.314L101.223 160.272Z" fill="#010101"/>
<path d="M78.4267 164.842C81.4502 166.215 81.9505 168.919 82.1027 171.773C82.1027 173.468 82.1027 175.142 82.2333 176.837C82.3492 177.85 82.707 178.82 83.2773 179.67C83.3605 179.804 83.4262 179.948 83.4731 180.099C83.7994 180.936 83.7994 180.936 82.8641 180.936H76.7083C75.6425 180.936 75.3597 180.678 75.2509 179.584C75.0117 176.687 74.7506 173.79 74.4896 171.001C74.5147 170.593 74.4489 170.185 74.2968 169.806C74.1446 169.426 73.9099 169.084 73.6091 168.803C73.3083 168.523 72.9488 168.311 72.556 168.183C72.1632 168.055 71.7466 168.013 71.3356 168.061C68.6166 167.932 65.9194 168.061 63.2004 168.061C62.5914 168.061 62.6784 168.383 62.6784 168.747C62.6784 172.588 62.6784 176.43 62.6784 180.292C62.6784 180.957 62.4826 181.107 61.8518 181.086C59.8942 181.086 57.9582 181.086 56.0006 181.086C55.522 181.086 55.3698 181.086 55.3698 180.485C55.3698 169.513 55.3698 158.541 55.3698 147.568C55.3698 147.032 55.5438 146.946 56.0441 146.946C61.047 146.946 66.0499 146.946 71.0528 146.946C72.7429 146.856 74.4377 146.972 76.0992 147.289C77.8377 147.81 79.3969 148.793 80.6052 150.132C81.8136 151.47 82.6243 153.111 82.9481 154.875C83.2719 156.638 83.0963 158.456 82.4405 160.127C81.7848 161.799 80.6744 163.259 79.2315 164.349L78.5572 164.885C78.5572 164.885 78.4702 164.756 78.4267 164.842ZM67.5508 161.816C69.0299 161.816 70.4873 161.816 71.9011 161.816C72.7094 161.845 73.5029 161.598 74.1485 161.117C74.7941 160.637 75.2525 159.952 75.4467 159.177C75.7733 157.968 75.7733 156.695 75.4467 155.486C75.3057 154.782 74.9287 154.145 74.3763 153.678C73.824 153.211 73.1283 152.941 72.4014 152.911C69.552 152.675 66.6807 152.654 63.8312 152.632C63.6459 152.615 63.4589 152.639 63.2842 152.702C63.1094 152.765 62.9514 152.867 62.8219 152.999C62.6923 153.131 62.5945 153.29 62.5358 153.464C62.4771 153.638 62.4589 153.823 62.4826 154.006C62.4826 156.366 62.4826 158.726 62.4826 161.087C62.4826 161.752 62.7001 161.838 63.2657 161.816H67.5508Z" fill="#010101"/>
<path d="M146.64 159.156C145.64 159.156 144.639 159.156 143.639 159.156C143.259 159.207 142.875 159.113 142.564 158.893C142.252 158.674 142.038 158.346 141.964 157.975C141.76 157.441 141.497 156.93 141.181 156.452C140.606 155.615 139.813 154.946 138.886 154.515C137.959 154.083 136.932 153.906 135.912 154C134.892 154.094 133.916 154.457 133.086 155.051C132.257 155.644 131.604 156.447 131.197 157.375C129.451 161.327 129.311 165.79 130.805 169.842C131.085 170.639 131.535 171.368 132.125 171.98C132.714 172.592 133.429 173.073 134.222 173.39C135.015 173.707 135.868 173.853 136.723 173.818C137.578 173.784 138.415 173.569 139.179 173.189C139.841 172.888 140.419 172.435 140.866 171.867C141.313 171.3 141.614 170.634 141.746 169.928C142.159 168.297 142.486 168.039 144.204 168.104C146.124 168.211 148.048 168.211 149.968 168.104C150.556 168.104 150.664 168.254 150.599 168.79C150.303 171.821 148.928 174.65 146.718 176.776C144.508 178.901 141.606 180.185 138.527 180.399C136.06 180.652 133.569 180.55 131.131 180.099C129.431 179.819 127.828 179.131 126.462 178.094C125.096 177.057 124.01 175.704 123.301 174.155C121.666 171.005 120.827 167.512 120.858 163.973C120.888 160.435 121.786 156.956 123.475 153.834C124.413 152.043 125.794 150.515 127.489 149.39C129.185 148.264 131.141 147.579 133.176 147.397C136.238 146.983 139.354 147.187 142.333 147.997C144.723 148.621 146.831 150.017 148.322 151.962C149.812 153.907 150.599 156.289 150.556 158.727C150.556 159.177 150.556 159.37 149.968 159.349C148.837 159.349 147.684 159.349 146.553 159.349L146.64 159.156Z" fill="#DD2027"/>
<path d="M161.018 162.074C162.363 162.08 163.701 162.261 164.999 162.61C166.065 162.889 166.347 163.361 165.934 164.37C165.738 164.928 165.934 165.743 165.325 165.958C164.716 166.172 164.194 165.808 163.628 165.765C162.472 165.515 161.285 165.435 160.105 165.529C159.061 165.743 158.539 166.151 158.408 167.009C158.356 167.387 158.439 167.77 158.641 168.095C158.843 168.419 159.153 168.665 159.517 168.79C160.975 169.52 162.476 170.164 163.868 170.936C165.036 171.389 165.983 172.267 166.513 173.39C167.044 174.512 167.117 175.792 166.717 176.966C166.496 177.8 166.035 178.553 165.391 179.135C164.747 179.717 163.946 180.104 163.085 180.249C160.374 180.866 157.546 180.77 154.884 179.97C153.797 179.648 153.623 179.262 153.992 178.189L154.188 177.502C154.427 176.472 154.427 176.494 155.515 176.623L160.3 177.202C160.732 177.255 161.171 177.179 161.558 176.984C161.946 176.789 162.266 176.484 162.476 176.108C162.954 175.485 162.476 174.284 161.453 173.769C160.431 173.254 159.648 172.953 158.756 172.524C157.864 172.095 157.407 171.923 156.777 171.58C155.872 171.128 155.141 170.397 154.694 169.499C154.246 168.601 154.107 167.584 154.297 166.602C154.379 165.597 154.778 164.644 155.437 163.874C156.096 163.104 156.983 162.557 157.973 162.31C158.971 162.083 159.997 162.004 161.018 162.074V162.074Z" fill="#DD2027"/>
<path d="M95.4144 0C97.3721 0.858328 99.4602 1.37333 101.483 2.14582C115.507 6.72361 128.52 13.889 139.832 23.2607C150.958 32.4342 159.536 44.249 164.759 57.5938C164.955 58.1088 165.129 58.6238 165.368 59.2676C164.085 59.2676 162.91 59.0745 161.757 59.053C160.51 58.9301 159.251 59.0569 158.055 59.4256C156.859 59.7943 155.751 60.3974 154.797 61.1988C154.231 61.7353 153.774 62.3576 153.209 63.0013C151.999 59.9877 150.619 57.0433 149.076 54.182C142.049 41.3997 131.656 30.7245 118.993 23.2822C113.831 20.1754 108.436 17.4638 102.854 15.171C102.418 14.9993 102.049 14.7632 101.722 15.407C97.3721 23.7542 91.4773 31.0929 86.1916 38.7964C82.0721 44.3325 78.3645 50.1558 75.0982 56.2205C72.5606 60.8604 70.631 65.7996 69.3557 70.9194C67.9635 77.8597 68.7215 85.0527 71.5309 91.5622C74.1284 98.4129 78.5462 104.448 84.3212 109.035C90.0962 113.622 97.0157 116.592 104.354 117.634C115.311 119.377 126.523 116.791 135.561 110.438C144.6 104.084 150.737 94.4729 152.643 83.687C152.774 82.9789 152.643 81.9704 153.122 81.67C153.6 81.3695 154.492 81.8631 155.297 81.9704C159.256 82.8583 163.402 82.4283 167.087 80.7473C166.546 86.9481 164.965 93.0174 162.41 98.7078C154.144 116.282 140.419 127.333 121.082 130.895C112.64 132.609 103.904 132.289 95.6151 129.962C87.3259 127.634 79.7282 123.369 73.4668 117.527C63.6485 108.864 57.2981 97.0194 55.5651 84.1376C54.046 73.8983 55.7625 63.4459 60.481 54.2034C63.7074 48.0471 67.4625 42.1747 71.7049 36.6506C77.0559 29.2905 82.5808 22.0376 87.3662 14.2268C89.8513 10.2362 92.0325 6.06896 93.8918 1.75957C94.1528 1.1802 94.3486 0.579372 94.5661 0L95.4144 0Z" fill="#DD2027"/>
<path d="M80.2756 82.8504C81.3414 82.8504 82.4508 82.8504 83.4948 82.8504C84.1691 82.8504 84.4084 83.0006 84.5389 83.6658C84.9552 86.2849 85.7385 88.8342 86.8664 91.2405C88.0143 93.6197 89.7339 95.6864 91.8758 97.2608C94.0176 98.8352 96.5168 99.8697 99.1561 100.274C100.2 100.51 101.331 100.682 102.332 100.832C102.745 100.832 102.941 100.961 102.941 101.433C102.941 103.579 102.941 105.854 102.941 108.085C102.941 108.944 102.201 108.944 101.658 108.986C100.577 109.033 99.4944 108.939 98.4383 108.707C93.4788 107.956 88.8413 105.819 85.075 102.548C81.3087 99.2779 78.5712 95.0112 77.1868 90.2534C76.5453 88.0614 76.1943 85.7966 76.1427 83.5156C76.1427 82.9576 76.3167 82.8289 76.8388 82.8504C77.9264 82.8933 79.101 82.8504 80.2756 82.8504Z" fill="#DD2027"/>
<path d="M159.409 79.6745C157.808 79.6774 156.219 79.4088 154.71 78.8805C154.558 78.8805 154.362 78.8805 154.275 78.7089C153.644 77.8291 154.471 77.0351 154.471 76.1982C154.471 75.7476 154.775 75.6618 155.189 75.7262L159.322 76.2412C160.264 76.4217 161.241 76.229 162.041 75.7047C162.255 75.5937 162.434 75.4271 162.559 75.2229C162.684 75.0186 162.75 74.7846 162.75 74.546C162.75 74.3073 162.684 74.0733 162.559 73.869C162.434 73.6648 162.255 73.4982 162.041 73.3872C161.441 72.9841 160.799 72.646 160.126 72.3787C159.039 71.8851 157.951 71.4345 156.885 70.8551C156.057 70.445 155.377 69.7913 154.941 68.9842C154.505 68.1771 154.333 67.2564 154.449 66.3489C154.47 65.3683 154.812 64.4206 155.423 63.6473C156.035 62.8739 156.883 62.3161 157.842 62.0573C160.406 61.3002 163.15 61.3982 165.651 62.3362C165.978 62.3362 166.152 62.5723 165.999 62.9156C165.847 63.2589 165.999 62.9156 165.999 63.0229C165.608 65.4477 165.63 65.4048 163.15 65.1687C161.997 65.0185 160.822 64.5679 159.648 65.3189C158.473 66.07 158.278 67.2931 159.648 68.1514C160.279 68.5147 160.942 68.8234 161.627 69.0741C162.966 69.5941 164.214 70.3182 165.325 71.2199C165.921 71.7371 166.373 72.3961 166.638 73.1341C166.903 73.8722 166.972 74.6648 166.839 75.4367C166.706 76.2086 166.376 76.9342 165.878 77.5444C165.381 78.1547 164.734 78.6294 163.998 78.9234C162.541 79.4974 160.975 79.7536 159.409 79.6745V79.6745Z" fill="#DD2027"/>
</g>
<path d="M17.676 219.088V217.432C17.676 214.444 15.084 212.968 11.52 212.968C4.896 212.968 0.432 217.72 0.432 224.38C0.432 230.896 5.364 235.18 11.124 235.18C14.148 235.18 17.604 233.92 17.604 230.932V229.312H17.46C16.272 230.572 13.86 231.436 11.7 231.436C7.632 231.436 4.788 228.844 4.788 223.768C4.788 219.556 7.668 216.748 11.556 216.748C13.428 216.748 16.128 217.324 17.496 219.088H17.676ZM19.9322 227.152C19.9322 231.472 22.7402 235.36 27.6362 235.36C32.8922 235.36 35.7002 231.472 35.7002 226.576C35.7002 222.256 32.8922 218.296 27.9962 218.296C22.7402 218.296 19.9322 222.256 19.9322 227.152ZM31.4882 227.152C31.4882 229.816 30.3362 231.724 27.9962 231.724C25.2962 231.724 24.1082 229.816 24.1082 226.576C24.1082 223.876 25.2962 221.932 27.6362 221.932C30.3002 221.932 31.4882 223.876 31.4882 227.152ZM63.189 235V225.208C63.189 220.564 60.165 218.296 56.421 218.296C54.441 218.296 52.677 219.34 51.741 220.852C50.553 219.268 48.897 218.296 46.773 218.296C41.841 218.296 39.501 221.284 39.501 225.712V232.048C39.501 233.92 40.797 235 42.453 235H43.533V225.388C43.533 223.156 44.721 221.896 46.305 221.896C48.069 221.896 49.329 223.048 49.329 225.748V232.048C49.329 233.956 50.481 235 52.281 235H53.361V225.28C53.361 223.048 54.477 221.896 56.133 221.896C57.897 221.896 59.121 223.048 59.121 225.748V232.048C59.121 233.956 59.985 235 62.181 235H63.189ZM91.5953 235V225.208C91.5953 220.564 88.5713 218.296 84.8273 218.296C82.8473 218.296 81.0833 219.34 80.1473 220.852C78.9593 219.268 77.3033 218.296 75.1793 218.296C70.2473 218.296 67.9072 221.284 67.9072 225.712V232.048C67.9072 233.92 69.2033 235 70.8593 235H71.9393V225.388C71.9393 223.156 73.1273 221.896 74.7113 221.896C76.4753 221.896 77.7353 223.048 77.7353 225.748V232.048C77.7353 233.956 78.8873 235 80.6873 235H81.7673V225.28C81.7673 223.048 82.8833 221.896 84.5392 221.896C86.3033 221.896 87.5273 223.048 87.5273 225.748V232.048C87.5273 233.956 88.3913 235 90.5873 235H91.5953ZM101.21 215.128C101.21 213.832 100.094 212.788 98.7975 212.788C97.5015 212.788 96.4575 213.832 96.4575 215.128C96.4575 216.424 97.5015 217.504 98.7975 217.504C100.094 217.504 101.21 216.424 101.21 215.128ZM104.09 232.696V231.832H103.334C101.57 231.832 100.85 231.328 100.85 229.672V222.04C100.85 219.988 99.7695 219.016 97.9695 219.016H96.8175C96.8175 219.016 96.8175 229.132 96.8175 230.068C96.8175 233.38 98.5455 235.144 101.678 235.144C103.406 235.144 104.09 234.46 104.09 232.696ZM121.153 235V225.496C121.153 220.888 117.949 218.296 114.133 218.296C109.057 218.296 106.789 221.86 106.789 225.28V232.336C106.789 233.848 107.905 235 109.633 235H110.821V225.568C110.821 223.228 112.045 221.896 113.773 221.896C115.861 221.896 117.085 223.12 117.085 225.856V232.336C117.085 233.848 118.237 235 120.037 235H121.153ZM139.992 228.232V225.46C139.992 221.284 137.4 218.296 133.332 218.296C128.076 218.296 125.052 222.04 125.052 226.612C125.052 230.464 127.86 233.2 131.82 233.2C134.16 233.2 135.708 231.976 136.032 230.788V231.184C136.032 231.616 136.104 232.336 136.104 232.84C136.104 235.216 134.772 236.62 131.82 236.62C129.516 236.62 127.644 235.864 126.672 234.856H126.492V236.692C126.492 238.636 128.76 240.256 132.144 240.256C137.4 240.256 140.1 236.62 140.1 232.516C140.1 231.292 139.992 229.456 139.992 228.232ZM132.9 221.896C134.664 221.896 135.96 223.156 135.96 225.676C135.96 228.304 134.484 229.816 132.468 229.816C130.524 229.816 129.228 228.232 129.228 226.108C129.228 223.66 130.812 221.896 132.9 221.896ZM165.174 229.852C165.174 227.296 163.338 225.82 159.954 225.244C157.182 224.812 156.678 224.488 156.678 223.624C156.678 222.58 157.47 221.824 159.954 221.824C161.898 221.824 163.77 222.472 164.598 223.336H164.778V221.788C164.778 220.204 163.266 218.296 159.558 218.296C155.382 218.296 152.646 220.924 152.646 223.948C152.646 226.432 154.302 227.836 157.758 228.304C160.566 228.7 161.142 229.132 161.142 230.068C161.142 231.292 160.17 231.868 158.154 231.868C156.246 231.868 154.158 231.112 153.258 230.32H153.114V232.156C153.114 233.812 155.346 235.36 158.37 235.36C162.726 235.36 165.174 233.308 165.174 229.852ZM168.01 227.152C168.01 231.472 170.818 235.36 175.714 235.36C180.97 235.36 183.778 231.472 183.778 226.576C183.778 222.256 180.97 218.296 176.074 218.296C170.818 218.296 168.01 222.256 168.01 227.152ZM179.566 227.152C179.566 229.816 178.414 231.724 176.074 231.724C173.374 231.724 172.186 229.816 172.186 226.576C172.186 223.876 173.374 221.932 175.714 221.932C178.378 221.932 179.566 223.876 179.566 227.152ZM186.643 227.152C186.643 231.472 189.451 235.36 194.347 235.36C199.603 235.36 202.411 231.472 202.411 226.576C202.411 222.256 199.603 218.296 194.707 218.296C189.451 218.296 186.643 222.256 186.643 227.152ZM198.199 227.152C198.199 229.816 197.047 231.724 194.707 231.724C192.007 231.724 190.819 229.816 190.819 226.576C190.819 223.876 192.007 221.932 194.347 221.932C197.011 221.932 198.199 223.876 198.199 227.152ZM220.54 235V225.496C220.54 220.888 217.336 218.296 213.52 218.296C208.444 218.296 206.176 221.86 206.176 225.28V232.336C206.176 233.848 207.292 235 209.02 235H210.208V225.568C210.208 223.228 211.432 221.896 213.16 221.896C215.248 221.896 216.472 223.12 216.472 225.856V232.336C216.472 233.848 217.624 235 219.424 235H220.54Z" fill="black"/>
<defs>
<clipPath id="clip0_901_288">
<rect width="112" height="181" fill="white" transform="translate(55)"/>
</clipPath>
</defs>
</svg>
